<?xml version="1.0" encoding="iso-8859-1"?>
<!-- Generator: Adobe Illustrator 19.0.0, SVG Export Plug-In . SVG Version: 6.00 Build 0)  -->
<svg version="1.1" id="Capa_1" xmlns="http://www.w3.org/2000/svg" xmlns:xlink="http://www.w3.org/1999/xlink" x="0px" y="0px"
	 viewBox="0 0 512 512" style="enable-background:new 0 0 512 512;" xml:space="preserve">
<g>
	<g>
		<path d="M345.705,394.479c-13.092-20.665-20.262-44.86-20.841-70.112h-15.41v49.903c0,24.765-20.147,44.912-44.912,44.912h-17.885
			c-24.765,0-44.912-20.147-44.912-44.912v-49.903h-14.722c-0.666,28.325-9.885,55.937-26.175,78.085
			c-6.051,8.226-12.931,15.657-20.516,22.163V512h231.335v-87.385h0.001C361.686,416.057,352.972,405.947,345.705,394.479z"/>
	</g>
</g>
<g>
	<g>
		<path d="M397.482,324.366h-42.673c0.566,19.561,6.131,38.212,16.188,54.088c6.753,10.658,15.063,19.774,24.699,27.096
			c3.725,2.83,5.913,7.241,5.913,11.92V512h52.005c8.268,0,14.971-6.703,14.971-14.971V396.108
			C468.585,355.879,437.353,324.366,397.482,324.366z"/>
	</g>
</g>
<g>
	<g>
		<path d="M114.552,324.367c-19.278,0-37.378,7.412-50.966,20.87c-13.651,13.52-21.169,31.587-21.169,50.871v100.921
			c0,8.268,6.703,14.971,14.971,14.971h53.003v-94.53c0-4.679,2.188-9.09,5.914-11.921c7.665-5.823,14.536-12.833,20.424-20.838
			c12.541-17.051,19.7-38.365,20.353-60.344H114.552z"/>
	</g>
</g>
<g>
	<g>
		<path d="M357.219,216.579H154.781v28.784c0,13.812,3.723,26.763,10.192,37.938c6.772,11.698,16.566,21.43,28.317,28.13
			c2.721,1.551,5.539,2.948,8.455,4.16c8.976,3.73,18.809,5.8,29.121,5.8h0.821v52.878c0,8.255,6.715,14.971,14.971,14.971h17.885
			c8.255,0,14.971-6.715,14.971-14.971v-52.878h1.422c10.081,0,19.702-1.977,28.52-5.533c3.163-1.276,6.218-2.757,9.155-4.427
			c11.747-6.68,21.543-16.374,28.331-28.026c6.523-11.199,10.279-24.188,10.279-38.043v-28.783H357.219z"/>
	</g>
</g>
<g>
	<g>
		<path d="M467.496,157.904l-123.668-53V66.548C343.828,29.853,313.953,0,277.232,0h-42.295c-36.815,0-66.765,29.853-66.765,66.548
			v38.356l-123.668,53c-6.533,2.8-10.197,9.808-8.767,16.77c1.429,6.962,7.557,11.961,14.665,11.961h411.196
			c7.108,0,13.236-4.998,14.665-11.961C477.693,167.711,474.029,160.703,467.496,157.904z"/>
	</g>
</g>
<g>
</g>
<g>
</g>
<g>
</g>
<g>
</g>
<g>
</g>
<g>
</g>
<g>
</g>
<g>
</g>
<g>
</g>
<g>
</g>
<g>
</g>
<g>
</g>
<g>
</g>
<g>
</g>
<g>
</g>
</svg>
